<svg id="visual" viewBox="0 0 900 600" width="900" height="600" xmlns="http://www.w3.org/2000/svg" xmlns:xlink="http://www.w3.org/1999/xlink" version="1.1"><rect x="0" y="0" width="900" height="600" fill="#001220"></rect><path d="M0 382L16.7 382C33.3 382 66.7 382 100 379.7C133.3 377.3 166.7 372.7 200 371.7C233.3 370.7 266.7 373.3 300 379.8C333.3 386.3 366.7 396.7 400 394.3C433.3 392 466.7 377 500 379C533.3 381 566.7 400 600 416C633.3 432 666.7 445 700 446.7C733.3 448.3 766.7 438.7 800 424C833.3 409.3 866.7 389.7 883.3 379.8L900 370L900 601L883.3 601C866.7 601 833.3 601 800 601C766.7 601 733.3 601 700 601C666.7 601 633.3 601 600 601C566.7 601 533.3 601 500 601C466.7 601 433.3 601 400 601C366.7 601 333.3 601 300 601C266.7 601 233.3 601 200 601C166.7 601 133.3 601 100 601C66.7 601 33.3 601 16.7 601L0 601Z" fill="#3824c7"></path><path d="M0 445L16.7 446.3C33.3 447.7 66.7 450.3 100 443.2C133.3 436 166.7 419 200 413.8C233.3 408.7 266.7 415.3 300 418.3C333.3 421.3 366.7 420.7 400 431.8C433.3 443 466.7 466 500 463C533.3 460 566.7 431 600 431.2C633.3 431.3 666.7 460.7 700 462.5C733.3 464.3 766.7 438.7 800 425C833.3 411.3 866.7 409.7 883.3 408.8L900 408L900 601L883.3 601C866.7 601 833.3 601 800 601C766.7 601 733.3 601 700 601C666.7 601 633.3 601 600 601C566.7 601 533.3 601 500 601C466.7 601 433.3 601 400 601C366.7 601 333.3 601 300 601C266.7 601 233.3 601 200 601C166.7 601 133.3 601 100 601C66.7 601 33.3 601 16.7 601L0 601Z" fill="#3e42d6"></path><path d="M0 458L16.7 464.8C33.3 471.7 66.7 485.3 100 483.7C133.3 482 166.7 465 200 458.7C233.3 452.3 266.7 456.7 300 458.5C333.3 460.3 366.7 459.7 400 466.5C433.3 473.3 466.7 487.7 500 485C533.3 482.3 566.7 462.7 600 463.8C633.3 465 666.7 487 700 495.7C733.3 504.3 766.7 499.7 800 488.2C833.3 476.7 866.7 458.3 883.3 449.2L900 440L900 601L883.3 601C866.7 601 833.3 601 800 601C766.7 601 733.3 601 700 601C666.7 601 633.3 601 600 601C566.7 601 533.3 601 500 601C466.7 601 433.3 601 400 601C366.7 601 333.3 601 300 601C266.7 601 233.3 601 200 601C166.7 601 133.3 601 100 601C66.7 601 33.3 601 16.7 601L0 601Z" fill="#495ce4"></path><path d="M0 487L16.7 496.3C33.3 505.7 66.7 524.3 100 529.5C133.3 534.7 166.7 526.3 200 526C233.3 525.7 266.7 533.3 300 531.7C333.3 530 366.7 519 400 515.8C433.3 512.7 466.7 517.3 500 520.5C533.3 523.7 566.7 525.3 600 528.7C633.3 532 666.7 537 700 540C733.3 543 766.7 544 800 538.5C833.3 533 866.7 521 883.3 515L900 509L900 601L883.3 601C866.7 601 833.3 601 800 601C766.7 601 733.3 601 700 601C666.7 601 633.3 601 600 601C566.7 601 533.3 601 500 601C466.7 601 433.3 601 400 601C366.7 601 333.3 601 300 601C266.7 601 233.3 601 200 601C166.7 601 133.3 601 100 601C66.7 601 33.3 601 16.7 601L0 601Z" fill="#5774f0"></path><path d="M0 561L16.7 555C33.3 549 66.7 537 100 533.5C133.3 530 166.7 535 200 540.8C233.3 546.7 266.7 553.3 300 552C333.3 550.7 366.7 541.3 400 537.5C433.3 533.7 466.7 535.3 500 541.7C533.3 548 566.7 559 600 557.3C633.3 555.7 666.7 541.3 700 540C733.3 538.7 766.7 550.3 800 554.5C833.3 558.7 866.7 555.3 883.3 553.7L900 552L900 601L883.3 601C866.7 601 833.3 601 800 601C766.7 601 733.3 601 700 601C666.7 601 633.3 601 600 601C566.7 601 533.3 601 500 601C466.7 601 433.3 601 400 601C366.7 601 333.3 601 300 601C266.7 601 233.3 601 200 601C166.7 601 133.3 601 100 601C66.7 601 33.3 601 16.7 601L0 601Z" fill="#698cfa"></path></svg>